<svg width="126" height="64" viewBox="0 0 126 64" fill="none" xmlns="http://www.w3.org/2000/svg">
<path d="M124.422 0.97546C119.906 -0.252 114.438 0.658835 110.041 2.0058C101.642 4.70022 94.4717 10.4052 86.667 14.4856C82.5461 16.2287 76.8802 16.5853 73.0774 14.208C72.1665 13.5614 70.5158 14.0233 70.5158 14.0233C69.9878 13.6276 69.3959 13.4767 68.6798 13.7324C66.7782 15.1198 64.797 12.9801 62.7777 14.0895C60.758 12.9801 58.7773 15.1198 56.8756 13.7324C56.1591 13.4767 55.5677 13.6276 55.0397 14.0233C55.0397 14.0233 53.388 13.5614 52.4772 14.208C48.6748 16.5853 43.0094 16.2287 38.8889 14.4856C31.0833 10.4052 23.9137 4.70022 15.5148 2.0058C11.1173 0.658835 5.64943 -0.252 1.13335 0.97546C0.539141 1.3716 -0.135054 2.08531 0.0234969 2.95663C0.340599 3.4718 0.658166 4.18505 1.33141 4.30408C17.496 1.88725 26.211 17.9323 39.7607 22.1713C39.7869 22.3432 38.9946 23.0031 38.1357 23.4654C36.2212 24.5224 33.3816 24.1125 33.184 26.7274C33.6987 28.3524 35.6794 28.9466 37.1058 29.5799C40.4735 31.4829 44.5153 29.8979 47.565 28.3524C47.9211 27.9953 48.5158 28.1934 48.7924 28.5505C48.5548 35.8805 54.1412 40.7536 55.1711 47.5675C55.7658 50.7371 53.7846 53.0735 53.547 56.0455C53.5208 57.142 54.3788 56.4159 54.8412 60.0469C55.0397 60.7072 56.6904 62.5565 58.1826 63.335C59.5601 63.8778 61.1565 64.0359 62.7777 63.9935C64.3985 64.0359 65.9949 63.8778 67.3724 63.335C68.8646 62.5565 70.5158 60.7072 70.7124 60.0469C71.1762 56.4159 72.0342 57.142 72.008 56.0455C71.7699 53.0735 69.7892 50.7371 70.3834 47.5675C71.4138 40.7536 76.9997 35.8805 76.7616 28.5505C77.0397 28.1934 77.6344 27.9953 77.9905 28.3524C81.0401 29.8979 85.081 31.4829 88.4497 29.5799C89.8757 28.9466 91.8564 28.3524 92.3715 26.7274C92.173 24.1125 89.3334 24.5224 87.4198 23.4654C86.5604 23.0031 85.7681 22.3432 85.7938 22.1713C99.344 17.9323 108.06 1.88725 124.224 4.30408C124.897 4.18505 125.214 3.4718 125.531 2.95663C125.684 2.08627 125.012 1.37255 124.417 0.976411" fill="#C15D26"/>
</svg>
